<svg width="264" height="280" viewBox="0 0 264 280" fill="none" xmlns="http://www.w3.org/2000/svg">
<mask id="pr24_random_uuid_278714201699589187585124249145684113197" mask-type="alpha" maskUnits="userSpaceOnUse" x="32" y="36" width="200" height="244">
<path d="M156 180.611V199H160C199.764 199 232 231.236 232 271V280H32V271C32 231.236 64.2355 199 104 199H108V180.611C90.7626 172.422 78.3722 155.687 76.3051 135.881C70.4803 135.058 66 130.052 66 124V110C66 104.054 70.3246 99.1181 76 98.1659V92C76 61.0721 101.072 36 132 36C162.928 36 188 61.0721 188 92V98.1659C193.675 99.1181 198 104.054 198 110V124C198 130.052 193.52 135.058 187.695 135.881C185.628 155.687 173.237 172.422 156 180.611Z" fill="white"/>
</mask>
<g mask="url(#pr24_random_uuid_278714201699589187585124249145684113197)">
<path d="M156 180.611V199H160C199.764 199 232 231.236 232 271V280H32V271C32 231.236 64.2355 199 104 199H108V180.611C90.7626 172.422 78.3722 155.687 76.3051 135.881C70.4803 135.058 66 130.052 66 124V110C66 104.054 70.3246 99.1181 76 98.1659V92C76 61.0721 101.072 36 132 36C162.928 36 188 61.0721 188 92V98.1659C193.675 99.1181 198 104.054 198 110V124C198 130.052 193.52 135.058 187.695 135.881C185.628 155.687 173.237 172.422 156 180.611Z" fill="#D0C6AC"/>
<path d="M264 36H0V280H264V36Z" fill="#EDB98A"/>
<path fill-rule="evenodd" clip-rule="evenodd" d="M188 115V138C188 168.928 162.928 194 132 194C101.072 194 76 168.928 76 138V115V130C76 160.928 101.072 186 132 186C162.928 186 188 160.928 188 130V115Z" fill="black" fill-opacity="0.1"/>
</g>
<mask id="pr24_random_uuid_179535333350905778880745555157444655412" mask-type="alpha" maskUnits="userSpaceOnUse" x="32" y="199" width="200" height="81">
<path fill-rule="evenodd" clip-rule="evenodd" d="M165.624 199.268C202.76 202.137 232 233.18 232 271.052V280H32V271.052C32 232.835 61.7752 201.572 99.3929 199.197C99.1342 200.274 99 201.377 99 202.5C99 214.374 113.998 224 132.5 224C151.002 224 166 214.374 166 202.5C166 201.402 165.872 200.322 165.624 199.268L165.624 199.268Z" fill="white"/>
</mask>
<g mask="url(#pr24_random_uuid_179535333350905778880745555157444655412)">
<path fill-rule="evenodd" clip-rule="evenodd" d="M165.624 199.268C202.76 202.137 232 233.18 232 271.052V280H32V271.052C32 232.835 61.7752 201.572 99.3929 199.197C99.1342 200.274 99 201.377 99 202.5C99 214.374 113.998 224 132.5 224C151.002 224 166 214.374 166 202.5C166 201.402 165.872 200.322 165.624 199.268L165.624 199.268Z" fill="#E6E6E6"/>
<path d="M264 170H0V280H264V170Z" fill="#4E5545"/>
<path fill-rule="evenodd" clip-rule="evenodd" d="M142.282 247.929C141.984 250.706 136.589 252.203 134.61 250.377C133.698 249.535 133.683 247.803 133.482 246.675C133.101 244.542 132.826 242.417 132.731 240.252C132.673 238.927 132.325 237.867 133.775 237.67C134.658 237.551 135.568 238.138 136.29 238.603C138.737 240.176 142.62 244.741 142.282 247.929ZM129.881 242.076C130.166 244.901 131.201 249.815 128.946 252.181C126.93 254.296 122.786 252.199 122.163 249.708C121.39 246.619 124.438 242.927 126.308 240.839C126.882 240.197 128.152 238.426 129.144 239.019C129.526 239.246 129.837 241.63 129.881 242.076ZM131.321 253.106C131.968 251.583 138.234 256.125 135.274 258.285C134.792 258.638 131.115 259.751 130.41 259.227C128.925 258.124 130.841 254.263 131.321 253.106ZM150.325 245.527C149.882 230.051 130.065 225.687 119.476 234.504C115.427 237.876 113.113 242.004 113.007 247.283C112.917 251.754 113.626 255.972 117.041 259.047C118.522 260.38 119.5 261.196 120.286 263.017C121.11 264.923 121.485 267.352 123.028 268.85C123.879 269.675 125.118 270.342 126.294 269.809C128.456 268.83 127.764 265.832 128.419 264.161C130.456 269.129 135.63 270.714 136.569 264.41C137.6 266.229 140.295 268.61 142.268 266.62C143.081 265.8 143.203 264.471 143.341 263.393C143.586 261.481 143.16 260.729 144.696 259.418C148.735 255.968 150.469 250.746 150.325 245.527Z" fill="white" fill-opacity="0.15"/>
</g>
<path fill-rule="evenodd" clip-rule="evenodd" d="M118 149C118 156.732 124.268 163 132 163C139.732 163 146 156.732 146 149" fill="black" fill-opacity="0.7"/>
<path fill-rule="evenodd" clip-rule="evenodd" d="M120 130C120 134.418 125.373 138 132 138C138.627 138 144 134.418 144 130" fill="black" fill-opacity="0.16"/>
<path d="M106 118C109.314 118 112 115.314 112 112C112 108.686 109.314 106 106 106C102.686 106 100 108.686 100 112C100 115.314 102.686 118 106 118Z" fill="black" fill-opacity="0.6"/>
<path d="M158 118C161.314 118 164 115.314 164 112C164 108.686 161.314 106 158 106C154.686 106 152 108.686 152 112C152 115.314 154.686 118 158 118Z" fill="black" fill-opacity="0.6"/>
<path fill-rule="evenodd" clip-rule="evenodd" d="M102.547 88.1484C96.7404 88.4166 87.3523 92.6363 87.5942 98.4922C87.6022 98.6839 87.8837 98.768 88.0213 98.6206C90.7762 95.6613 110.337 92.6709 117.226 94.2556C117.857 94.4008 118.336 93.7788 117.936 93.3294C114.514 89.4812 107.75 87.903 102.547 88.1484Z" fill="black" fill-opacity="0.6"/>
<path fill-rule="evenodd" clip-rule="evenodd" d="M162.453 88.1484C168.26 88.4166 177.648 92.6363 177.406 98.4922C177.398 98.6839 177.116 98.768 176.979 98.6206C174.224 95.6613 154.664 92.6709 147.774 94.2556C147.143 94.4008 146.664 93.7788 147.064 93.3294C150.486 89.4812 157.25 87.903 162.453 88.1484Z" fill="black" fill-opacity="0.6"/>
<mask id="pr24_random_uuid_111976065863854420956233655431163250721" mask-type="alpha" maskUnits="userSpaceOnUse" x="106" y="41" width="58" height="25">
<path fill-rule="evenodd" clip-rule="evenodd" d="M158.621 59.0121C157.253 59.8718 155.665 60.6016 154.12 61.3334C153.779 61.4947 153.433 61.6521 153.099 61.8196C153.024 61.8576 152.247 62.1995 152.155 62.3253C151.931 62.628 152.06 62.3923 152.091 62.7535C152.13 63.2102 153.645 64.5002 152.515 64.796C152.018 64.9261 151.131 64.5799 150.654 64.4655C149.721 64.2417 148.777 64.0508 147.813 63.8863C148.275 64.4523 149.156 65.5855 147.5 65.2822C146.211 65.0459 145.009 64.4384 143.713 64.1526C144.142 64.5849 145.856 65.9244 144.307 65.9993C143.825 66.0226 142.422 65.4663 141.903 65.3477C140.348 64.9922 138.759 64.7625 137.127 64.5815C131.576 63.9662 125.084 64.1417 119.948 62.5874C115.989 61.3891 112.079 59.5299 109.792 57.1623C107.587 54.8803 106.762 52.3829 106.301 49.7679C105.962 47.8488 105.935 45.8651 106.093 43.939C106.145 43.308 106.26 40.3991 107.751 41.2801C108.494 41.719 108.488 43.4914 108.675 44.0913C109.047 45.285 109.406 46.4839 110.026 47.6394C111.12 49.6756 112.41 51.8446 115.135 53.247C116.883 54.1469 118.111 55.3631 119.784 56.271C120.536 56.6787 119.962 56.6363 121.171 56.5828C121.982 56.5468 122.798 56.5331 123.611 56.52C125.493 56.49 127.378 56.4976 129.26 56.4936C133.051 56.4852 136.824 56.4522 140.611 56.5743C142.294 56.6285 143.982 56.6578 145.66 56.7536C146.598 56.8071 148.261 57.1767 149.033 56.8942C149.74 56.6358 150.473 55.7921 150.98 55.4466C152.179 54.63 153.607 54.0063 155.009 53.3367C157.931 51.9406 159.406 50.187 160.293 48.0051C161.177 45.8313 160.929 43.8146 162.024 41.6754C162.216 41.2992 162.726 40.6509 163.353 41.232C163.47 41.34 163.44 41.9332 163.44 42.2746C163.44 43.6526 164.007 44.6865 164 46.0734C163.972 50.2905 163.75 55.7894 158.621 59.0121Z" fill="white"/>
</mask>
<g mask="url(#pr24_random_uuid_111976065863854420956233655431163250721)">
<path fill-rule="evenodd" clip-rule="evenodd" d="M158.621 59.0121C157.253 59.8718 155.665 60.6016 154.12 61.3334C153.779 61.4947 153.433 61.6521 153.099 61.8196C153.024 61.8576 152.247 62.1995 152.155 62.3253C151.931 62.628 152.06 62.3923 152.091 62.7535C152.13 63.2102 153.645 64.5002 152.515 64.796C152.018 64.9261 151.131 64.5799 150.654 64.4655C149.721 64.2417 148.777 64.0508 147.813 63.8863C148.275 64.4523 149.156 65.5855 147.5 65.2822C146.211 65.0459 145.009 64.4384 143.713 64.1526C144.142 64.5849 145.856 65.9244 144.307 65.9993C143.825 66.0226 142.422 65.4663 141.903 65.3477C140.348 64.9922 138.759 64.7625 137.127 64.5815C131.576 63.9662 125.084 64.1417 119.948 62.5874C115.989 61.3891 112.079 59.5299 109.792 57.1623C107.587 54.8803 106.762 52.3829 106.301 49.7679C105.962 47.8488 105.935 45.8651 106.093 43.939C106.145 43.308 106.26 40.3991 107.751 41.2801C108.494 41.719 108.488 43.4914 108.675 44.0913C109.047 45.285 109.406 46.4839 110.026 47.6394C111.12 49.6756 112.41 51.8446 115.135 53.247C116.883 54.1469 118.111 55.3631 119.784 56.271C120.536 56.6787 119.962 56.6363 121.171 56.5828C121.982 56.5468 122.798 56.5331 123.611 56.52C125.493 56.49 127.378 56.4976 129.26 56.4936C133.051 56.4852 136.824 56.4522 140.611 56.5743C142.294 56.6285 143.982 56.6578 145.66 56.7536C146.598 56.8071 148.261 57.1767 149.033 56.8942C149.74 56.6358 150.473 55.7921 150.98 55.4466C152.179 54.63 153.607 54.0063 155.009 53.3367C157.931 51.9406 159.406 50.187 160.293 48.0051C161.177 45.8313 160.929 43.8146 162.024 41.6754C162.216 41.2992 162.726 40.6509 163.353 41.232C163.47 41.34 163.44 41.9332 163.44 42.2746C163.44 43.6526 164.007 44.6865 164 46.0734C163.972 50.2905 163.75 55.7894 158.621 59.0121Z" fill="#1F3140"/>
<path d="M200.188 71.1829H69.3162V-14.1829H200.188V71.1829Z" fill="#2C1B18"/>
</g>
<mask id="pr24_random_uuid_105599746471067781654383545937536700394" mask-type="alpha" maskUnits="userSpaceOnUse" x="0" y="0" width="264" height="280">
<path d="M264 0H0V280H264V0Z" fill="white"/>
</mask>
<g mask="url(#pr24_random_uuid_105599746471067781654383545937536700394)">
<mask id="pr24_random_uuid_60965855395443528788919219328673305426" mask-type="alpha" maskUnits="userSpaceOnUse" x="0" y="1" width="264" height="280">
<path fill-rule="evenodd" clip-rule="evenodd" d="M156 181.611C173.531 173.283 186.048 156.115 187.791 135.867C193.569 135.002 198 130.019 198 124V111C198 105.054 193.675 100.118 188 99.1659V93C188 85.0547 186.345 77.4958 183.362 70.6492C173.435 54 89.3126 54.8034 80.7099 70.4855C77.6812 77.3752 76 84.9913 76 93V99.1659C70.3246 100.118 66 105.054 66 111V124C66 130.019 70.4309 135.002 76.2086 135.867C77.9518 156.115 90.4692 173.283 108 181.611V200H104C64.2355 200 32 232.236 32 272V281H232V272C232 232.236 199.764 200 160 200H156V181.611ZM0 1H264V281H0V1Z" fill="white"/>
</mask>
<g mask="url(#pr24_random_uuid_60965855395443528788919219328673305426)">
<path fill-rule="evenodd" clip-rule="evenodd" d="M123.182 3H141.818C160.609 3 176.867 16.0804 180.89 34.4362L190 76H75L84.1099 34.4362C88.133 16.0804 104.391 3 123.182 3Z" fill="url(#pr24_random_uuid_108673717874118497307447677136804207114)"/>
<path d="M132 146C199.379 146 254 120.256 254 88.5C254 56.7436 199.379 31 132 31C64.6213 31 10 56.7436 10 88.5C10 120.256 64.6213 146 132 146Z" fill="url(#pr24_random_uuid_159650316355471136621863658194636397912)"/>
<path d="M132 108C166.242 108 194 96.8071 194 83C194 69.1929 166.242 58 132 58C97.7583 58 70 69.1929 70 83C70 96.8071 97.7583 108 132 108Z" fill="#39230F"/>
</g>
<mask id="pr24_random_uuid_89140802775337458329832855235295642639" mask-type="alpha" maskUnits="userSpaceOnUse" x="98" y="136" width="69" height="51">
<path fill-rule="evenodd" clip-rule="evenodd" d="M149.428 170.169C146.915 172.463 144.237 173.494 140.853 172.773C140.271 172.649 137.896 168.235 132 168.235C126.103 168.235 123.729 172.649 123.147 172.773C119.762 173.494 117.085 172.463 114.571 170.169C109.846 165.856 105.917 159.908 108.278 153.419C109.508 150.037 111.51 146.324 115.151 145.246C119.038 144.096 124.497 145.244 128.415 144.458C129.684 144.204 131.071 143.751 132 143C132.929 143.751 134.316 144.204 135.585 144.458C139.503 145.244 144.961 144.096 148.849 145.246C152.49 146.324 154.491 150.037 155.722 153.419C158.083 159.908 154.154 165.856 149.428 170.169ZM166.5 169V164.5L166 161L163.542 153.45C163.542 153.45 160.302 144.29 156.455 141.147C152.092 137.582 146.643 136.016 141.149 136.258C138.779 136.362 133.984 136.337 132 138.16C130.016 136.337 125.222 136.362 122.851 136.258C117.357 136.016 111.908 137.582 107.545 141.147C103.698 144.29 100.458 153.45 100.458 153.45L98.5 161L98 165V169L98.5 172.5L100.458 176L106.108 181.393C111.286 183.53 123.015 187 132 187C140.985 187 151.277 183.53 156.455 181.393L163.542 176L166 172.5L166.5 169Z" fill="white"/>
</mask>
<g mask="url(#pr24_random_uuid_89140802775337458329832855235295642639)">
<path fill-rule="evenodd" clip-rule="evenodd" d="M149.428 170.169C146.915 172.463 144.237 173.494 140.853 172.773C140.271 172.649 137.896 168.235 132 168.235C126.103 168.235 123.729 172.649 123.147 172.773C119.762 173.494 117.085 172.463 114.571 170.169C109.846 165.856 105.917 159.908 108.278 153.419C109.508 150.037 111.51 146.324 115.151 145.246C119.038 144.096 124.497 145.244 128.415 144.458C129.684 144.204 131.071 143.751 132 143C132.929 143.751 134.316 144.204 135.585 144.458C139.503 145.244 144.961 144.096 148.849 145.246C152.49 146.324 154.491 150.037 155.722 153.419C158.083 159.908 154.154 165.856 149.428 170.169ZM188.081 98C184.671 106.4 185.988 116.858 185.357 125.676C184.844 132.843 183.337 143.586 176.973 148.215C173.718 150.582 167.794 154.56 163.542 153.45C160.615 152.686 160.302 144.29 156.455 141.147C152.092 137.582 146.643 136.016 141.149 136.258C138.779 136.362 133.984 136.337 132 138.16C130.016 136.337 125.222 136.362 122.851 136.258C117.357 136.016 111.908 137.582 107.545 141.147C103.698 144.29 103.386 152.686 100.458 153.45C96.2058 154.56 90.2818 150.582 87.027 148.215C80.6624 143.586 79.1562 132.843 78.6429 125.676C78.0121 116.858 79.3292 106.4 75.9188 98C74.2598 98 75.354 114.129 75.354 114.129V134.485C75.3857 149.773 84.9351 172.655 106.108 181.393C111.286 183.53 123.015 187 132 187C140.985 187 152.714 183.86 157.892 181.723C179.065 172.986 188.614 149.773 188.646 134.485V114.129C188.646 114.129 189.74 98 188.081 98Z" fill="#331B0C"/>
<path d="M280 72H16V316H280V72Z" fill="#4A312C"/>
</g>
</g>
<defs>
<linearGradient id="pr24_random_uuid_108673717874118497307447677136804207114" x1="132.5" y1="3" x2="132.5" y2="76" gradientUnits="userSpaceOnUse">
<stop stop-color="#58360E"/>
<stop offset="1" stop-color="#847461"/>
</linearGradient>
<linearGradient id="pr24_random_uuid_159650316355471136621863658194636397912" x1="132" y1="31" x2="132" y2="146" gradientUnits="userSpaceOnUse">
<stop stop-color="#58360E"/>
<stop offset="1" stop-color="#A29488"/>
</linearGradient>
</defs>
</svg>