<svg width="59" height="38" viewBox="0 0 59 38" fill="none" xmlns="http://www.w3.org/2000/svg">
<mask id="pr24_random_uuid_243613541536973607936589837997175763896" mask-type="alpha" maskUnits="userSpaceOnUse" x="0" y="0" width="59" height="38">
<rect x="0.523804" width="58" height="38" rx="10" fill="#C4C4C4"/>
</mask>
<g mask="url(#pr24_random_uuid_243613541536973607936589837997175763896)">
<path d="M0.523804 28V2.17668C0.523804 1.32192 1.52674 0.861156 2.17525 1.41798L23.3993 19.6416C27.196 22.9016 32.818 22.8531 36.5579 19.5282L56.8594 1.47971C57.5043 0.906392 58.5238 1.36419 58.5238 2.22707V28C58.5238 33.5228 54.0466 38 48.5238 38H10.5238C5.00096 38 0.523804 33.5228 0.523804 28Z" fill="#454545"/>
<path d="M53.4107 0.521945L36.6191 15.7927C32.8624 19.2091 27.1417 19.2677 23.3158 15.929L5.66571 0.526033C5.45685 0.343767 5.58576 0 5.86297 0H53.2089C53.4831 0 53.6136 0.337472 53.4107 0.521945Z" fill="#454545"/>
</g>
</svg>
