<svg width="264" height="280" viewBox="0 0 264 280" fill="none" xmlns="http://www.w3.org/2000/svg">
<mask id="pr24_random_uuid_170333955358223381003727705223155088423" mask-type="alpha" maskUnits="userSpaceOnUse" x="32" y="36" width="200" height="244">
<path d="M156 180.611V199H160C199.764 199 232 231.236 232 271V280H32V271C32 231.236 64.2355 199 104 199H108V180.611C90.7626 172.422 78.3722 155.687 76.3051 135.881C70.4803 135.058 66 130.052 66 124V110C66 104.054 70.3246 99.1181 76 98.1659V92C76 61.0721 101.072 36 132 36C162.928 36 188 61.0721 188 92V98.1659C193.675 99.1181 198 104.054 198 110V124C198 130.052 193.52 135.058 187.695 135.881C185.628 155.687 173.237 172.422 156 180.611Z" fill="white"/>
</mask>
<g mask="url(#pr24_random_uuid_170333955358223381003727705223155088423)">
<path d="M156 180.611V199H160C199.764 199 232 231.236 232 271V280H32V271C32 231.236 64.2355 199 104 199H108V180.611C90.7626 172.422 78.3722 155.687 76.3051 135.881C70.4803 135.058 66 130.052 66 124V110C66 104.054 70.3246 99.1181 76 98.1659V92C76 61.0721 101.072 36 132 36C162.928 36 188 61.0721 188 92V98.1659C193.675 99.1181 198 104.054 198 110V124C198 130.052 193.52 135.058 187.695 135.881C185.628 155.687 173.237 172.422 156 180.611Z" fill="#D0C6AC"/>
<path d="M264 36H0V280H264V36Z" fill="#F9C99E"/>
<path fill-rule="evenodd" clip-rule="evenodd" d="M188 115V138C188 168.928 162.928 194 132 194C101.072 194 76 168.928 76 138V115V130C76 160.928 101.072 186 132 186C162.928 186 188 160.928 188 130V115Z" fill="black" fill-opacity="0.1"/>
</g>
<mask id="pr24_random_uuid_200871975727123914734672191369617519616" mask-type="alpha" maskUnits="userSpaceOnUse" x="32" y="199" width="200" height="81">
<path fill-rule="evenodd" clip-rule="evenodd" d="M165.96 199.295C202.936 202.325 232 233.294 232 271.052V280H32V271.052C32 232.953 61.592 201.765 99.0454 199.22C99.0153 199.593 99 199.969 99 200.348C99 212.211 113.998 221.828 132.5 221.828C151.002 221.828 166 212.211 166 200.348C166 199.995 165.987 199.644 165.96 199.295Z" fill="white"/>
</mask>
<g mask="url(#pr24_random_uuid_200871975727123914734672191369617519616)">
<path fill-rule="evenodd" clip-rule="evenodd" d="M165.96 199.295C202.936 202.325 232 233.294 232 271.052V280H32V271.052C32 232.953 61.592 201.765 99.0454 199.22C99.0153 199.593 99 199.969 99 200.348C99 212.211 113.998 221.828 132.5 221.828C151.002 221.828 166 212.211 166 200.348C166 199.995 165.987 199.644 165.96 199.295Z" fill="#E6E6E6"/>
<path d="M264 170H0V280H264V170Z" fill="#604859"/>
<g opacity="0.6">
<g opacity="0.6">
<path opacity="0.6" d="M132.5 228.761C154.39 228.761 172.135 216.712 172.135 201.848C172.135 186.984 154.39 174.934 132.5 174.934C110.61 174.934 92.8649 186.984 92.8649 201.848C92.8649 216.712 110.61 228.761 132.5 228.761Z" fill="black" fill-opacity="0.16"/>
</g>
</g>
</g>
<path fill-rule="evenodd" clip-rule="evenodd" d="M100.785 199.122C62.5123 200.804 32 232.365 32 271.052H32V280H101.362C97.9607 267.92 96 253.709 96 238.5C96 224.173 97.74 210.731 100.785 199.122ZM163.638 280H232V271.052C232 232.707 202.025 201.363 164.229 199.174C167.265 210.771 169 224.194 169 238.5C169 253.709 167.039 267.92 163.638 280Z" fill="#88607D"/>
<path fill-rule="evenodd" clip-rule="evenodd" d="M181 256L190.556 248.833C191.999 247.751 193.988 247.768 195.412 248.876L202 254L181 256Z" fill="#E6E6E6"/>
<path fill-rule="evenodd" clip-rule="evenodd" d="M101 198C97 217.333 98.6667 244.667 106 280H90L76 244L82 235L76 229L95 199C97.0277 198.369 99.0277 198.036 101 198Z" fill="#695062"/>
<path fill-rule="evenodd" clip-rule="evenodd" d="M163 198C167 217.333 165.333 244.667 158 280H174L188 244L182 235L188 229L169 199C166.972 198.369 164.972 198.036 163 198Z" fill="#695062"/>
<path d="M118 150C118 155.372 124.158 159 132 159C139.842 159 146 155.372 146 150C146 148.895 145.05 148 144 148C142.707 148 142.13 148.905 142 150C140.758 152.938 137.683 154.716 132 155C126.317 154.716 123.242 152.938 122 150C121.87 148.905 121.293 148 120 148C118.95 148 118 148.895 118 150Z" fill="black" fill-opacity="0.6"/>
<path fill-rule="evenodd" clip-rule="evenodd" d="M120 130C120 134.418 125.373 138 132 138C138.627 138 144 134.418 144 130" fill="black" fill-opacity="0.16"/>
<path fill-rule="evenodd" clip-rule="evenodd" d="M92.1602 112.447C94.0067 108.649 98.1644 106 102.998 106C107.814 106 111.959 108.63 113.815 112.407C114.367 113.529 113.582 114.447 112.791 113.767C110.34 111.66 106.859 110.344 102.998 110.344C99.2572 110.344 95.8738 111.579 93.4375 113.572C92.5468 114.3 91.6201 113.558 92.1602 112.447Z" fill="black" fill-opacity="0.6"/>
<path fill-rule="evenodd" clip-rule="evenodd" d="M150.16 112.447C152.007 108.649 156.164 106 160.998 106C165.814 106 169.959 108.63 171.815 112.407C172.367 113.529 171.582 114.447 170.791 113.767C168.34 111.66 164.859 110.344 160.998 110.344C157.257 110.344 153.874 111.579 151.438 113.572C150.547 114.3 149.62 113.558 150.16 112.447Z" fill="black" fill-opacity="0.6"/>
<path d="M91.6303 99.1586C95.5452 93.6499 106.278 90.5608 115.523 92.8312C116.596 93.0946 117.679 92.4386 117.942 91.3659C118.206 90.2932 117.55 89.21 116.477 88.9466C105.74 86.31 93.3121 89.887 88.3698 96.8414C87.7299 97.7418 87.9411 98.9904 88.8415 99.6303C89.7418 100.27 90.9904 100.059 91.6303 99.1586Z" fill="black" fill-opacity="0.6"/>
<path d="M172.37 99.1586C168.455 93.6499 157.722 90.5608 148.477 92.8312C147.405 93.0946 146.321 92.4386 146.058 91.3659C145.795 90.2932 146.451 89.21 147.523 88.9466C158.26 86.31 170.688 89.887 175.631 96.8414C176.27 97.7418 176.059 98.9904 175.159 99.6303C174.259 100.27 173.01 100.059 172.37 99.1586Z" fill="black" fill-opacity="0.6"/>
<mask id="pr24_random_uuid_257537820514529593257072813088805534936" mask-type="alpha" maskUnits="userSpaceOnUse" x="0" y="0" width="264" height="280">
<path d="M264 0H0V280H264V0Z" fill="white"/>
</mask>
<g mask="url(#pr24_random_uuid_257537820514529593257072813088805534936)">
<mask id="pr24_random_uuid_295748527089145759800705830713545880202" mask-type="alpha" maskUnits="userSpaceOnUse" x="75" y="98" width="114" height="89">
<path fill-rule="evenodd" clip-rule="evenodd" d="M149.428 170.169C146.915 172.463 144.237 173.494 140.853 172.773C140.271 172.649 137.896 168.235 132 168.235C126.103 168.235 123.729 172.649 123.147 172.773C119.762 173.494 117.085 172.463 114.571 170.169C109.846 165.856 105.917 159.908 108.278 153.419C109.508 150.037 111.51 146.324 115.151 145.246C119.038 144.096 124.497 145.244 128.415 144.458C129.684 144.204 131.071 143.751 132 143C132.929 143.751 134.316 144.204 135.585 144.458C139.503 145.244 144.961 144.096 148.849 145.246C152.49 146.324 154.491 150.037 155.722 153.419C158.083 159.908 154.154 165.856 149.428 170.169ZM188.081 98C184.671 106.4 185.988 116.858 185.357 125.676C184.844 132.843 183.337 143.586 176.973 148.215C173.718 150.582 167.794 154.56 163.542 153.45C160.615 152.686 160.302 144.29 156.455 141.147C152.092 137.582 146.643 136.016 141.149 136.258C138.779 136.362 133.984 136.337 132 138.16C130.016 136.337 125.222 136.362 122.851 136.258C117.357 136.016 111.908 137.582 107.545 141.147C103.698 144.29 103.386 152.686 100.458 153.45C96.2058 154.56 90.2818 150.582 87.027 148.215C80.6624 143.586 79.1562 132.843 78.6429 125.676C78.0121 116.858 79.3292 106.4 75.9188 98C74.2598 98 75.354 114.129 75.354 114.129V134.485C75.3857 149.773 84.9351 172.655 106.108 181.393C111.286 183.53 123.015 187 132 187C140.985 187 152.714 183.86 157.892 181.723C179.065 172.986 188.614 149.773 188.646 134.485V114.129C188.646 114.129 189.74 98 188.081 98Z" fill="white"/>
</mask>
<g mask="url(#pr24_random_uuid_295748527089145759800705830713545880202)">
<path fill-rule="evenodd" clip-rule="evenodd" d="M149.428 170.169C146.915 172.463 144.237 173.494 140.853 172.773C140.271 172.649 137.896 168.235 132 168.235C126.103 168.235 123.729 172.649 123.147 172.773C119.762 173.494 117.085 172.463 114.571 170.169C109.846 165.856 105.917 159.908 108.278 153.419C109.508 150.037 111.51 146.324 115.151 145.246C119.038 144.096 124.497 145.244 128.415 144.458C129.684 144.204 131.071 143.751 132 143C132.929 143.751 134.316 144.204 135.585 144.458C139.503 145.244 144.961 144.096 148.849 145.246C152.49 146.324 154.491 150.037 155.722 153.419C158.083 159.908 154.154 165.856 149.428 170.169ZM188.081 98C184.671 106.4 185.988 116.858 185.357 125.676C184.844 132.843 183.337 143.586 176.973 148.215C173.718 150.582 167.794 154.56 163.542 153.45C160.615 152.686 160.302 144.29 156.455 141.147C152.092 137.582 146.643 136.016 141.149 136.258C138.779 136.362 133.984 136.337 132 138.16C130.016 136.337 125.222 136.362 122.851 136.258C117.357 136.016 111.908 137.582 107.545 141.147C103.698 144.29 103.386 152.686 100.458 153.45C96.2058 154.56 90.2818 150.582 87.027 148.215C80.6624 143.586 79.1562 132.843 78.6429 125.676C78.0121 116.858 79.3292 106.4 75.9188 98C74.2598 98 75.354 114.129 75.354 114.129V134.485C75.3857 149.773 84.9351 172.655 106.108 181.393C111.286 183.53 123.015 187 132 187C140.985 187 152.714 183.86 157.892 181.723C179.065 172.986 188.614 149.773 188.646 134.485V114.129C188.646 114.129 189.74 98 188.081 98Z" fill="#331B0C"/>
<path d="M280 72H16V316H280V72Z" fill="#2C1B18"/>
</g>
<mask id="pr24_random_uuid_125438513708380197832378608716122417778" mask-type="alpha" maskUnits="userSpaceOnUse" x="73" y="17" width="117" height="82">
<path fill-rule="evenodd" clip-rule="evenodd" d="M179.15 39.9204C176.39 37.1004 173.186 34.7068 170.069 32.3065C169.382 31.7774 168.683 31.2611 168.011 30.7118C167.858 30.587 166.292 29.4657 166.105 29.0531C165.654 28.0603 165.915 28.8333 165.977 27.6486C166.056 26.1505 169.111 21.9193 166.831 20.949C165.828 20.5222 164.04 21.658 163.078 22.0331C161.196 22.7672 159.292 23.3932 157.347 23.9331C158.279 22.0763 160.055 18.3595 156.716 19.3543C154.114 20.1293 151.69 22.122 149.076 23.0594C149.941 21.6415 153.4 17.2479 150.274 17.0023C149.302 16.9258 146.471 18.7504 145.424 19.1396C142.287 20.3055 139.083 21.0591 135.79 21.6526C124.592 23.6707 111.497 23.0953 101.137 28.1935C93.1495 32.1237 85.2625 38.222 80.6484 45.9875C76.2012 53.4726 74.5378 61.6642 73.607 70.2413C72.924 76.5359 72.8684 83.0426 73.1879 89.36C73.2922 91.4298 73.525 100.971 76.532 98.0814C78.0301 96.6417 78.0191 90.8282 78.3963 88.8604C79.1473 84.9453 79.8701 81.0127 81.122 77.2227C83.3282 70.5439 85.9308 63.4297 91.4269 58.8297C94.954 55.8782 97.4308 51.8889 100.806 48.9112C102.322 47.5739 101.165 47.7131 103.603 47.8886C105.241 48.0063 106.885 48.0513 108.526 48.0942C112.322 48.1929 116.124 48.1677 119.921 48.1811C127.568 48.2087 135.179 48.3167 142.819 47.9164C146.214 47.7386 149.618 47.6423 153.004 47.3283C154.895 47.1528 158.251 45.9406 159.808 46.8669C161.233 47.7144 162.713 50.4818 163.736 51.6151C166.154 54.2936 169.036 56.3392 171.862 58.5355C177.757 63.1149 180.732 68.8667 182.523 76.0232C184.306 83.1533 183.806 89.7682 186.013 96.7848C186.402 98.0185 187.429 100.145 188.695 98.2389C188.93 97.8849 188.87 95.939 188.87 94.8193C188.87 90.2996 190.014 86.9084 190 82.3591C189.944 68.5272 189.496 50.4908 179.15 39.9204Z" fill="white"/>
</mask>
<g mask="url(#pr24_random_uuid_125438513708380197832378608716122417778)">
<path fill-rule="evenodd" clip-rule="evenodd" d="M179.15 39.9204C176.39 37.1004 173.186 34.7068 170.069 32.3065C169.382 31.7774 168.683 31.2611 168.011 30.7118C167.858 30.587 166.292 29.4657 166.105 29.0531C165.654 28.0603 165.915 28.8333 165.977 27.6486C166.056 26.1505 169.111 21.9193 166.831 20.949C165.828 20.5222 164.04 21.658 163.078 22.0331C161.196 22.7672 159.292 23.3932 157.347 23.9331C158.279 22.0763 160.055 18.3595 156.716 19.3543C154.114 20.1293 151.69 22.122 149.076 23.0594C149.941 21.6415 153.4 17.2479 150.274 17.0023C149.302 16.9258 146.471 18.7504 145.424 19.1396C142.287 20.3055 139.083 21.0591 135.79 21.6526C124.592 23.6707 111.497 23.0953 101.137 28.1935C93.1495 32.1237 85.2625 38.222 80.6484 45.9875C76.2012 53.4726 74.5378 61.6642 73.607 70.2413C72.924 76.5359 72.8684 83.0426 73.1879 89.36C73.2922 91.4298 73.525 100.971 76.532 98.0814C78.0301 96.6417 78.0191 90.8282 78.3963 88.8604C79.1473 84.9453 79.8701 81.0127 81.122 77.2227C83.3282 70.5439 85.9308 63.4297 91.4269 58.8297C94.954 55.8782 97.4308 51.8889 100.806 48.9112C102.322 47.5739 101.165 47.7131 103.603 47.8886C105.241 48.0063 106.885 48.0513 108.526 48.0942C112.322 48.1929 116.124 48.1677 119.921 48.1811C127.568 48.2087 135.179 48.3167 142.819 47.9164C146.214 47.7386 149.618 47.6423 153.004 47.3283C154.895 47.1528 158.251 45.9406 159.808 46.8669C161.233 47.7144 162.713 50.4818 163.736 51.6151C166.154 54.2936 169.036 56.3392 171.862 58.5355C177.757 63.1149 180.732 68.8667 182.523 76.0232C184.306 83.1533 183.806 89.7682 186.013 96.7848C186.402 98.0185 187.429 100.145 188.695 98.2389C188.93 97.8849 188.87 95.939 188.87 94.8193C188.87 90.2996 190.014 86.9084 190 82.3591C189.944 68.5272 189.496 50.4908 179.15 39.9204Z" fill="#1F3140"/>
<path d="M263 0H-1V280H263V0Z" fill="#2C1B18"/>
</g>
<g filter="url(#pr24_random_uuid_307051380574870584557008276747137696775)">
<path fill-rule="evenodd" clip-rule="evenodd" d="M99.5 92C78.2095 92 70.6459 97.0963 69.9545 97.7716C68.3236 97.7716 67 99.0615 67 100.657V103.543C67 105.139 68.3236 106.429 69.9545 106.429C69.9545 106.429 75.8636 106.429 75.8636 109.315C75.8636 109.75 75.9309 109.959 76.0452 109.995C76.0119 110.825 76 111.661 76 112.5C76 125.336 84.3147 133 98.2421 133H101C115.721 133 126 124.569 126 112.5C126 110.998 125.962 109.501 125.831 108.04L127.413 107.267C127.992 106.984 128.624 106.774 129.304 106.634C131.159 106.254 133.256 106.407 135.296 106.91C136.028 107.09 136.556 107.264 136.8 107.361L138.181 107.907C138.04 109.411 138 110.953 138 112.5C138 125.336 146.315 133 160.242 133H163C177.721 133 188 124.569 188 112.5C188 110.964 187.96 109.434 187.822 107.94C189.561 106.429 194.045 106.429 194.045 106.429C195.679 106.429 197 105.139 197 103.543V100.657C197 99.0615 195.679 97.7716 194.045 97.7716C193.354 97.0963 185.79 92 164.5 92C164.494 92 164.488 92 164.481 92C164.478 92 164.474 92 164.47 92H161.53C159.74 92 158.085 92.0688 156.555 92.201C147.022 92.7399 141.876 94.3516 136.642 96.8972C136.1 97.0854 134.246 97.6728 132.079 97.7658C129.7 97.6898 127.667 96.999 127.269 96.8585L126.85 96.6519L126.844 96.6486C121.909 94.2337 118.415 92.5239 106.072 92.1015C104.937 92.0345 103.737 92 102.47 92H99.5299C99.5265 92 99.5231 92 99.5197 92C99.5131 92 99.5066 92 99.5 92ZM99.3854 98C80 98 80 104.841 80 113.502C80 120.572 83.1163 129 97.9709 129H101C113.365 129 122 122.627 122 113.502C122 104.841 122 98 102.615 98H99.3854ZM161.385 98C142 98 142 104.841 142 113.502C142 120.572 145.119 129 159.971 129H163C175.365 129 184 122.627 184 113.502C184 104.841 184 98 164.615 98H161.385Z" fill="url(#pr24_random_uuid_88624119696598615263473717032531320803)"/>
</g>
</g>
<defs>
<filter id="pr24_random_uuid_307051380574870584557008276747137696775" x="63" y="92" width="138" height="49" filterUnits="userSpaceOnUse" color-interpolation-filters="sRGB">
<feFlood flood-opacity="0" result="BackgroundImageFix"/>
<feColorMatrix in="SourceAlpha" type="matrix" values="0 0 0 0 0 0 0 0 0 0 0 0 0 0 0 0 0 0 127 0"/>
<feOffset dy="4"/>
<feGaussianBlur stdDeviation="2"/>
<feColorMatrix type="matrix" values="0 0 0 0 0 0 0 0 0 0 0 0 0 0 0 0 0 0 0.15 0"/>
<feBlend mode="normal" in2="BackgroundImageFix" result="effect1_dropShadow"/>
<feBlend mode="normal" in="SourceGraphic" in2="effect1_dropShadow" result="shape"/>
</filter>
<linearGradient id="pr24_random_uuid_88624119696598615263473717032531320803" x1="132" y1="92" x2="132" y2="133" gradientUnits="userSpaceOnUse">
<stop stop-color="#2F1F1D"/>
<stop offset="0.578125" stop-color="#624D49"/>
<stop offset="0.994792" stop-color="#624D49" stop-opacity="0.4"/>
</linearGradient>
</defs>
</svg>
