<svg width="49" height="54" viewBox="0 0 49 54" fill="none" xmlns="http://www.w3.org/2000/svg">
<path d="M20.2628 12.3745C21.2328 7.86594 20.0291 2.60067 14.9952 1.59482C13.2655 1.24919 10.8896 1.92292 9.47646 2.41989C8.67226 2.70271 7.94059 3.15865 7.30687 3.72884C1.82331 8.66263 1.08149 12.482 2.86375 19.9242C2.87417 19.9677 2.88273 20.0043 2.89287 20.0479C3.20661 21.3978 9.14771 46.1805 23.5551 51.0407C28.4363 52.6874 34.1053 52.5678 36.4927 52.4216C37.2621 52.3744 38.0077 52.1921 38.7187 51.8944C40.9111 50.9762 45.7488 48.7926 46.3375 47.1741C47.6169 43.6566 41.9889 39.8296 39.1703 38.1735C38.1768 37.5897 37.0217 37.3045 35.9779 37.7929C35.3505 38.0866 34.5547 38.5655 33.6057 39.346C31.014 41.4775 31.0286 43.7252 27.5058 43.0731C20.9983 41.8686 9.58396 23.0485 11.8346 19.9906C12.5459 19.0241 13.8781 18.2283 15.1481 17.6398C17.1096 16.7308 19.0606 15.5327 19.885 13.5342C20.049 13.1366 20.1841 12.7401 20.2628 12.3745Z" fill="#454545"/>
<path d="M29.805 6.49149C45.679 10 45.679 29.8333 45.679 29.8333M29.805 11.0388C41.3332 14.1882 41.3332 29.0238 41.3332 29.0238M29.805 15.1397C38.0941 18.3953 37.6459 28.2143 37.6459 28.2143M14.9952 1.59482C20.0291 2.60067 21.2328 7.86594 20.2628 12.3745C20.1841 12.7401 20.049 13.1366 19.885 13.5342C19.0606 15.5327 17.1096 16.7308 15.1481 17.6398C13.8781 18.2283 12.5459 19.0241 11.8346 19.9906C9.58396 23.0485 20.9983 41.8686 27.5058 43.0731C31.0286 43.7252 31.014 41.4775 33.6057 39.346C34.5547 38.5655 35.3505 38.0866 35.9779 37.7929C37.0217 37.3045 38.1768 37.5897 39.1703 38.1735C41.9889 39.8296 47.6169 43.6566 46.3375 47.1741C45.7488 48.7926 40.9111 50.9762 38.7187 51.8944C38.0077 52.1921 37.2621 52.3744 36.4927 52.4216C34.1053 52.5678 28.4363 52.6874 23.5551 51.0407C9.14771 46.1805 3.20661 21.3978 2.89287 20.0479C2.88273 20.0043 2.87417 19.9677 2.86375 19.9242C1.08149 12.482 1.82331 8.66263 7.30687 3.72884C7.94059 3.15865 8.67226 2.70271 9.47646 2.41989C10.8896 1.92292 13.2655 1.24919 14.9952 1.59482Z" stroke="#454545" stroke-width="3"/>
</svg>
