<svg width="264" height="280" viewBox="0 0 264 280" fill="none" xmlns="http://www.w3.org/2000/svg">
<mask id="pr24_random_uuid_298345253973975017143538893142232918126" mask-type="alpha" maskUnits="userSpaceOnUse" x="32" y="36" width="200" height="244">
<path d="M156 180.611V199H160C199.764 199 232 231.236 232 271V280H32V271C32 231.236 64.2355 199 104 199H108V180.611C90.7626 172.422 78.3722 155.687 76.3051 135.881C70.4803 135.058 66 130.052 66 124V110C66 104.054 70.3246 99.1181 76 98.1659V92C76 61.0721 101.072 36 132 36C162.928 36 188 61.0721 188 92V98.1659C193.675 99.1181 198 104.054 198 110V124C198 130.052 193.52 135.058 187.695 135.881C185.628 155.687 173.237 172.422 156 180.611Z" fill="white"/>
</mask>
<g mask="url(#pr24_random_uuid_298345253973975017143538893142232918126)">
<path d="M156 180.611V199H160C199.764 199 232 231.236 232 271V280H32V271C32 231.236 64.2355 199 104 199H108V180.611C90.7626 172.422 78.3722 155.687 76.3051 135.881C70.4803 135.058 66 130.052 66 124V110C66 104.054 70.3246 99.1181 76 98.1659V92C76 61.0721 101.072 36 132 36C162.928 36 188 61.0721 188 92V98.1659C193.675 99.1181 198 104.054 198 110V124C198 130.052 193.52 135.058 187.695 135.881C185.628 155.687 173.237 172.422 156 180.611Z" fill="#D0C6AC"/>
<path d="M264 36H0V280H264V36Z" fill="#FFDBB4"/>
<path fill-rule="evenodd" clip-rule="evenodd" d="M188 115V138C188 168.928 162.928 194 132 194C101.072 194 76 168.928 76 138V115V130C76 160.928 101.072 186 132 186C162.928 186 188 160.928 188 130V115Z" fill="black" fill-opacity="0.1"/>
</g>
<mask id="pr24_random_uuid_53341537356832946087397178179985283114" mask-type="alpha" maskUnits="userSpaceOnUse" x="32" y="199" width="200" height="81">
<path fill-rule="evenodd" clip-rule="evenodd" d="M105.192 199.052H104C64.2355 199.052 32 231.287 32 271.052V280H232V271.052C232 231.287 199.764 199.052 160 199.052H158.808C158.935 200.035 159 201.036 159 202.052C159 215.859 146.912 227.052 132 227.052C117.088 227.052 105 215.859 105 202.052C105 201.036 105.065 200.035 105.192 199.052Z" fill="white"/>
</mask>
<g mask="url(#pr24_random_uuid_53341537356832946087397178179985283114)">
<path fill-rule="evenodd" clip-rule="evenodd" d="M105.192 199.052H104C64.2355 199.052 32 231.287 32 271.052V280H232V271.052C232 231.287 199.764 199.052 160 199.052H158.808C158.935 200.035 159 201.036 159 202.052C159 215.859 146.912 227.052 132 227.052C117.088 227.052 105 215.859 105 202.052C105 201.036 105.065 200.035 105.192 199.052Z" fill="#E6E6E6"/>
<path d="M264 170H0V280H264V170Z" fill="#262E33"/>
<path fill-rule="evenodd" clip-rule="evenodd" d="M100.785 199.122C62.5123 200.804 32 232.365 32 271.052V280H101.362C97.9607 267.92 96 253.709 96 238.5C96 224.173 97.74 210.731 100.785 199.122ZM163.638 280H232V271.052C232 232.707 202.025 201.363 164.229 199.174C167.265 210.771 169 224.194 169 238.5C169 253.709 167.039 267.92 163.638 280Z" fill="#0C3454"/>
<path fill-rule="evenodd" clip-rule="evenodd" d="M181 256L190.556 248.833C191.999 247.751 193.988 247.768 195.412 248.876L202 254L181 256Z" fill="#E6E6E6"/>
<path fill-rule="evenodd" clip-rule="evenodd" d="M101 198C97 217.333 98.6667 244.667 106 280H90L76 244L82 235L76 229L95 199C97.0277 198.369 99.0277 198.036 101 198Z" fill="#2F4351"/>
<path fill-rule="evenodd" clip-rule="evenodd" d="M163 198C167 217.333 165.333 244.667 158 280H174L188 244L182 235L188 229L169 199C166.972 198.369 164.972 198.036 163 198Z" fill="#2F4351"/>
<path fill-rule="evenodd" clip-rule="evenodd" d="M156 191.539C162.772 196.136 167 202.656 167 209.888C167 217.289 162.572 223.945 155.52 228.556L149.579 223.876L145 224.208L146 221.057L145.922 220.996C152.022 217.853 156 212.7 156 206.877V191.539ZM108 191.539C101.228 196.136 97 202.656 97 209.888C97 217.289 101.428 223.945 108.48 228.556L114.421 223.876L119 224.208L118 221.057L118.078 220.996C111.978 217.853 108 212.7 108 206.877V191.539Z" fill="#F2F2F2"/>
</g>
<mask id="pr24_random_uuid_176682907452790632160876032843419251384" mask-type="alpha" maskUnits="userSpaceOnUse" x="113" y="147" width="38" height="19">
<path fill-rule="evenodd" clip-rule="evenodd" d="M113.118 149.128C114.176 158.62 122.226 166 132 166C141.804 166 149.874 158.574 150.892 149.04C150.974 148.273 150.117 147 149.043 147C134.149 147 122.738 147 115.087 147C114.007 147 113.012 148.178 113.118 149.128Z" fill="white"/>
</mask>
<g mask="url(#pr24_random_uuid_176682907452790632160876032843419251384)">
<path fill-rule="evenodd" clip-rule="evenodd" d="M113.118 149.128C114.176 158.62 122.226 166 132 166C141.804 166 149.874 158.574 150.892 149.04C150.974 148.273 150.117 147 149.043 147C134.149 147 122.738 147 115.087 147C114.007 147 113.012 148.178 113.118 149.128Z" fill="black" fill-opacity="0.7"/>
<path d="M143 136H122C119.239 136 117 138.239 117 141V147C117 149.761 119.239 152 122 152H143C145.761 152 148 149.761 148 147V141C148 138.239 145.761 136 143 136Z" fill="white"/>
<path d="M127 180C133.075 180 138 175.075 138 169C138 162.925 133.075 158 127 158C120.925 158 116 162.925 116 169C116 175.075 120.925 180 127 180Z" fill="#FF4F6D"/>
<path d="M137 180C143.075 180 148 175.075 148 169C148 162.925 143.075 158 137 158C130.925 158 126 162.925 126 169C126 175.075 130.925 180 137 180Z" fill="#FF4F6D"/>
</g>
<path fill-rule="evenodd" clip-rule="evenodd" d="M120 130C120 134.418 125.373 138 132 138C138.627 138 144 134.418 144 130" fill="black" fill-opacity="0.16"/>
<mask id="pr24_random_uuid_258481684071754757328782903875759909178" mask-type="alpha" maskUnits="userSpaceOnUse" x="92" y="103" width="28" height="16">
<path fill-rule="evenodd" clip-rule="evenodd" d="M106 117.048C115.61 117.048 120 121.499 120 114.562C120 107.624 113.732 103 106 103C98.268 103 92 107.624 92 114.562C92 121.499 96.39 117.048 106 117.048Z" fill="white"/>
</mask>
<g mask="url(#pr24_random_uuid_258481684071754757328782903875759909178)">
<path fill-rule="evenodd" clip-rule="evenodd" d="M106 117.048C115.61 117.048 120 121.499 120 114.562C120 107.624 113.732 103 106 103C98.268 103 92 107.624 92 114.562C92 121.499 96.39 117.048 106 117.048Z" fill="white"/>
<path d="M106 119C109.314 119 112 116.314 112 113C112 109.686 109.314 107 106 107C102.686 107 100 109.686 100 113C100 116.314 102.686 119 106 119Z" fill="black" fill-opacity="0.7"/>
</g>
<mask id="pr24_random_uuid_185427762263422815634689923278944951832" mask-type="alpha" maskUnits="userSpaceOnUse" x="144" y="103" width="28" height="16">
<path fill-rule="evenodd" clip-rule="evenodd" d="M158 117.048C167.61 117.048 172 121.499 172 114.562C172 107.624 165.732 103 158 103C150.268 103 144 107.624 144 114.562C144 121.499 148.39 117.048 158 117.048Z" fill="white"/>
</mask>
<g mask="url(#pr24_random_uuid_185427762263422815634689923278944951832)">
<path fill-rule="evenodd" clip-rule="evenodd" d="M158 117.048C167.61 117.048 172 121.499 172 114.562C172 107.624 165.732 103 158 103C150.268 103 144 107.624 144 114.562C144 121.499 148.39 117.048 158 117.048Z" fill="white"/>
<path d="M158 119C161.314 119 164 116.314 164 113C164 109.686 161.314 107 158 107C154.686 107 152 109.686 152 113C152 116.314 154.686 119 158 119Z" fill="black" fill-opacity="0.7"/>
</g>
<path d="M91.6303 99.1586C95.5452 93.6499 106.278 90.5608 115.523 92.8312C116.596 93.0946 117.679 92.4386 117.942 91.3659C118.206 90.2932 117.55 89.21 116.477 88.9466C105.74 86.31 93.3121 89.887 88.3698 96.8414C87.7299 97.7418 87.9411 98.9904 88.8415 99.6303C89.7418 100.27 90.9904 100.059 91.6303 99.1586Z" fill="black" fill-opacity="0.6"/>
<path d="M172.37 99.1586C168.455 93.6499 157.722 90.5608 148.477 92.8312C147.405 93.0946 146.321 92.4386 146.058 91.3659C145.795 90.2932 146.451 89.21 147.523 88.9466C158.26 86.31 170.688 89.887 175.631 96.8414C176.27 97.7418 176.059 98.9904 175.159 99.6303C174.259 100.27 173.01 100.059 172.37 99.1586Z" fill="black" fill-opacity="0.6"/>
<mask id="pr24_random_uuid_274474996698682283926042386161694399842" mask-type="alpha" maskUnits="userSpaceOnUse" x="0" y="0" width="264" height="280">
<path d="M264 0H0V280H264V0Z" fill="white"/>
</mask>
<g mask="url(#pr24_random_uuid_274474996698682283926042386161694399842)">
<mask id="pr24_random_uuid_56255804638986488563922537290724752135" mask-type="alpha" maskUnits="userSpaceOnUse" x="50" y="21" width="170" height="259">
<path fill-rule="evenodd" clip-rule="evenodd" d="M65.0421 77.075C70.6795 45.2058 98.513 21 132 21C169.555 21 200 51.4446 200 89V119.751C200.875 129.554 201.694 136.422 202.456 140.354C203.833 147.458 208.15 145.115 208.15 155.22C208.15 165.325 203.822 168.72 203.803 177.705C203.784 186.691 219.2 193.836 219.2 205.243C219.2 216.649 212.126 270.476 141.578 270.476C126.507 270.476 113.67 266.189 103.067 257.614C103.75 264.104 104.394 271.566 105 280H58C58.9324 256.229 50.7156 242.936 50.7156 216.446C50.7156 189.955 64.3526 151.428 64 142C64.02 141.418 64.0407 140.728 64.0621 139.932C64.0208 138.96 64 137.982 64 137V89C64 85.0241 64.3412 81.1279 64.996 77.339C64.9973 77.2262 64.9986 77.1132 65 77C65.014 77.025 65.0281 77.05 65.0421 77.075ZM131.5 53C101.4 53 77 77.4005 77 107.5V130.5C77 160.6 101.4 185 131.5 185H132.5C162.6 185 187 160.6 187 130.5V107.5C187 77.4005 162.6 53 132.5 53H131.5Z" fill="white"/>
</mask>
<g mask="url(#pr24_random_uuid_56255804638986488563922537290724752135)">
<path fill-rule="evenodd" clip-rule="evenodd" d="M65.0421 77.075C70.6795 45.2058 98.513 21 132 21C169.555 21 200 51.4446 200 89V119.751C200.875 129.554 201.694 136.422 202.456 140.354C203.833 147.458 208.15 145.115 208.15 155.22C208.15 165.325 203.822 168.72 203.803 177.705C203.784 186.691 219.2 193.836 219.2 205.243C219.2 216.649 212.126 270.476 141.578 270.476C126.507 270.476 113.67 266.189 103.067 257.614C103.75 264.104 104.394 271.566 105 280H58C58.9324 256.229 50.7156 242.936 50.7156 216.446C50.7156 189.955 64.3526 151.428 64 142C64.02 141.418 64.0407 140.728 64.0621 139.932C64.0208 138.96 64 137.982 64 137V89C64 85.0241 64.3412 81.1279 64.996 77.339C64.9973 77.2262 64.9986 77.1132 65 77C65.014 77.025 65.0281 77.05 65.0421 77.075ZM131.5 53C101.4 53 77 77.4005 77 107.5V130.5C77 160.6 101.4 185 131.5 185H132.5C162.6 185 187 160.6 187 130.5V107.5C187 77.4005 162.6 53 132.5 53H131.5Z" fill="#0C4CA4"/>
<path d="M263 0H-1V280H263V0Z" fill="#0B71AA"/>
<path fill-rule="evenodd" clip-rule="evenodd" d="M71.0744 104.96C70.369 101.247 70 97.4162 70 93.5C70 59.5345 97.7583 32 132 32C166.242 32 194 59.5345 194 93.5C194 97.4162 193.631 101.247 192.926 104.96C191.341 72.6828 164.67 47 132 47C99.3301 47 72.6587 72.6828 71.0744 104.96Z" fill="white" fill-opacity="0.5"/>
<path opacity="0.9" fill-rule="evenodd" clip-rule="evenodd" d="M186.929 104.695C187.631 108.188 188 111.801 188 115.5V138.5C188 168.6 163.6 193 133.5 193H130.5C100.4 193 76 168.6 76 138.5V115.5C76 111.801 76.3685 108.188 77.0709 104.695C77.0238 105.624 77 106.559 77 107.5V130.5C77 160.6 101.4 185 131.5 185H132.5C162.6 185 187 160.6 187 130.5V107.5C187 106.559 186.976 105.624 186.929 104.695ZM113.167 206.995C119.651 211.981 134.663 213.708 151.405 210.756C168.146 207.805 181.662 201.047 186.05 194.144C186.118 194.397 186.175 194.652 186.221 194.911C187.931 204.606 172.985 215.345 152.84 218.898C132.695 222.45 114.978 217.47 113.268 207.775C113.223 207.516 113.189 207.256 113.167 206.995H113.167ZM125.035 235.921C133.227 241.575 149.422 241.844 166.104 235.772C182.786 229.7 195.019 219.085 197.66 209.488C197.803 209.808 197.935 210.135 198.056 210.467C202.583 222.904 189.979 238.909 169.905 246.216C149.831 253.522 129.888 249.363 125.361 236.926C125.24 236.594 125.131 236.259 125.035 235.921H125.035Z" fill="black" fill-opacity="0.16"/>
</g>
</g>
</svg>
